<svg width="79" height="77" viewBox="0 0 79 77" fill="none" xmlns="http://www.w3.org/2000/svg">
<path d="M27.4186 55.326L22.5989 50.5063" stroke="white" stroke-width="2.41291" stroke-linecap="round" stroke-linejoin="round"/>
<path d="M55.0963 21.4996C49.9384 20.9204 31.1896 20.4864 25.0163 43.2915L34.6557 52.9309C57.3816 46.6785 57.1227 28.1349 56.6024 23.0058C56.5681 22.6186 56.3985 22.2557 56.1233 21.9804C55.848 21.7051 55.4845 21.535 55.0963 21.4996Z" stroke="white" stroke-width="2.41291" stroke-linecap="round" stroke-linejoin="round"/>
<path d="M33.8599 27.8589L23.4505 28.7758C23.192 28.7952 22.9418 28.8762 22.7212 29.012C22.5005 29.1477 22.3157 29.3343 22.1823 29.5559L15.6206 39.7727C15.4653 40.0162 15.3746 40.2951 15.3572 40.5832C15.3398 40.8712 15.3961 41.159 15.5209 41.4194C15.6457 41.6797 15.8349 41.9042 16.0707 42.0716C16.3065 42.239 16.5811 42.3439 16.8687 42.3763L25.0127 43.2908" stroke="white" stroke-width="2.41291" stroke-linecap="round" stroke-linejoin="round"/>
<path d="M50.1897 43.9453L49.2085 54.5313C49.1882 54.789 49.1062 55.0382 48.9694 55.2578C48.8326 55.4774 48.645 55.6611 48.4222 55.7934L38.1554 62.3051C37.9106 62.4592 37.6306 62.5487 37.3417 62.5652C37.0527 62.5817 36.7643 62.5247 36.5035 62.3995C36.2427 62.2743 36.0182 62.085 35.851 61.8494C35.6838 61.6138 35.5794 61.3398 35.5477 61.0529L34.6548 52.9305" stroke="white" stroke-width="2.41291" stroke-linecap="round" stroke-linejoin="round"/>
<path d="M42.5123 35.4963C43.5105 36.4945 45.1313 36.4969 46.1325 35.5017C47.1337 34.5065 47.1361 32.8905 46.1379 31.8923C45.1397 30.8942 43.5189 30.8917 42.5177 31.8869C41.5166 32.8822 41.5142 34.4981 42.5123 35.4963Z" fill="white"/>
</svg>
